# File created by Blade
# Date/Time:  Wed Jan 21 19:19:27 2015
#---------------------------------------------------------
:version 1.10
:name HOM
:units
  mass 1.0
  length 1.000000
  angle deg
:documentation
     Acclaim Skeleton File
:root
   axis xyz
   order TX TY TZ RX RY RZ
   position 0.000000 0.000000 0.000000
   orientation 0 0 0
:bonedata
   begin
      id 1
      name RightUpLeg_dum
      direction -1.000000 0.000000 0.000000
      length 3.693983
      axis 0.0 0.0 0.0 xyz
   end
   begin
      id 2
      name LeftUpLeg_dum
      direction 1.000000 0.000000 0.000000
      length 3.693983
      axis 0.0 0.0 0.0 xyz
   end
   begin
      id 3
      name Spine_dum
      direction 0.000000 1.000000 0.000000
      length 2.392956
      axis 0.0 0.0 0.0 xyz
   end
   begin
      id 4
      name RightUpLeg
      direction 0.000000 -1.000000 0.000000
      length 15.795667
      axis 0.0 0.0 0.0 xyz
      dof rx ry rz
   end
   begin
      id 5
      name RightLeg
      direction 0.000000 -1.000000 0.000000
      length 14.766989
      axis 0.0 0.0 0.0 xyz
      dof rx ry rz
   end
   begin
      id 6
      name RightFoot
      direction 0.000000 -0.258819 0.965926
      length 4.962790
      axis 15.0 0.0 0.0 xyz
      dof rx ry rz
   end
   begin
      id 7
      name RightToeBase
      direction 0.000000 0.000000 1.000000
      length 2.952750
      axis 0.0 0.0 0.0 xyz
      dof rx ry rz
   end
   begin
      id 8
      name LeftUpLeg
      direction 0.000000 -1.000000 0.000000
      length 15.795667
      axis 0.0 0.0 0.0 xyz
      dof rx ry rz
   end
   begin
      id 9
      name LeftLeg
      direction 0.000000 -1.000000 0.000000
      length 14.766989
      axis 0.0 0.0 0.0 xyz
      dof rx ry rz
   end
   begin
      id 10
      name LeftFoot
      direction 0.000000 -0.258819 0.965926
      length 4.962790
      axis 15.0 0.0 0.0 xyz
      dof rx ry rz
   end
   begin
      id 11
      name LeftToeBase
      direction 0.000000 0.000000 1.000000
      length 2.952750
      axis 0.0 0.0 0.0 xyz
      dof rx ry rz
   end
   begin
      id 12
      name Spine
      direction 0.000000 1.000000 0.000000
      length 0.000000
      axis 0.0 0.0 0.0 xyz
      dof rx ry rz
   end
   begin
      id 13
      name Spine_dum1
      direction 0.000000 1.000000 0.000000
      length 13.207411
      axis 0.0 0.0 0.0 xyz
   end
   begin
      id 14
      name Spine_dum2
      direction 0.000000 1.000000 0.000000
      length 13.207411
      axis 0.0 0.0 0.0 xyz
   end
   begin
      id 15
      name Spine_dum3
      direction 0.000000 1.000000 0.000000
      length 19.250100
      axis 0.0 0.0 0.0 xyz
   end
   begin
      id 16
      name RightShoulder
      direction -1.000000 0.000000 0.000000
      length 8.140465
      axis 0.0 0.0 90.0 xyz
      dof rx ry rz
   end
   begin
      id 17
      name RightArm
      direction -1.000000 0.000000 0.000000
      length 10.649840
      axis 0.0 0.0 90.0 xyz
      dof rx ry rz
   end
   begin
      id 18
      name RightForeArm
      direction -1.000000 0.000000 0.000000
      length 8.304624
      axis 0.0 0.0 90.0 xyz
      dof ry rz rx
   end
   begin
      id 19
      name RightHand
      direction -1.000000 0.000000 0.000000
      length 0.000000
      axis 0.0 0.0 90.0 xyz
      dof rx ry rz
   end
   begin
      id 20
      name RightHand_dum1
      direction -1.000000 0.000000 0.000000
      length 3.937000
      axis 0.0 0.0 90.0 xyz
   end
   begin
      id 21
      name RightHand_dum2
      direction 0.000000 0.000000 0.000000
      length 0.000000
      axis 0.0 0.0 90.0 xyz
   end
   begin
      id 22
      name RightHandThumb1
      direction 0.000000 0.000000 1.000000
      length 3.937000
      axis 0.0 0.0 90.0 xyz
      dof rx rz ry
   end
   begin
      id 23
      name LeftShoulder
      direction 1.000000 0.000000 0.000000
      length 8.140465
      axis 0.0 0.0 -90.0 xyz
      dof rx ry rz
   end
   begin
      id 24
      name LeftArm
      direction 1.000000 0.000000 0.000000
      length 10.649840
      axis 0.0 0.0 -90.0 xyz
      dof rx ry rz
   end
   begin
      id 25
      name LeftForeArm
      direction 1.000000 0.000000 0.000000
      length 8.304624
      axis 0.0 0.0 -90.0 xyz
      dof ry rz rx
   end
   begin
      id 26
      name LeftHand
      direction 1.000000 0.000000 0.000000
      length 0.000000
      axis 0.0 0.0 -90.0 xyz
      dof rx ry rz
   end
   begin
      id 27
      name LeftHand_dum1
      direction 1.000000 0.000000 0.000000
      length 3.937000
      axis 0.0 0.0 -90.0 xyz
   end
   begin
      id 28
      name LeftHand_dum2
      direction 0.000000 0.000000 0.000000
      length 0.000000
      axis 0.0 0.0 -90.0 xyz
   end
   begin
      id 29
      name LeftHandThumb1
      direction 0.000000 0.000000 1.000000
      length 3.937000
      axis 0.0 0.0 -90.0 xyz
      dof rx rz ry
   end
   begin
      id 30
      name Head
      direction 0.000000 1.000000 0.000000
      length 4.527550
      axis 0.0 0.0 0.0 xyz
      dof rx ry rz
   end
:hierarchy
   begin
      root RightUpLeg_dum LeftUpLeg_dum Spine_dum
      RightUpLeg_dum RightUpLeg
      LeftUpLeg_dum LeftUpLeg
      Spine_dum Spine
      RightUpLeg RightLeg
      RightLeg RightFoot
      RightFoot RightToeBase
      LeftUpLeg LeftLeg
      LeftLeg LeftFoot
      LeftFoot LeftToeBase
      Spine Spine_dum1 Spine_dum2 Spine_dum3
      Spine_dum1 RightShoulder
      Spine_dum2 LeftShoulder
      Spine_dum3 Head
      RightShoulder RightArm
      RightArm RightForeArm
      RightForeArm RightHand
      RightHand RightHand_dum1 RightHand_dum2
      RightHand_dum2 RightHandThumb1
      LeftShoulder LeftArm
      LeftArm LeftForeArm
      LeftForeArm LeftHand
      LeftHand LeftHand_dum1 LeftHand_dum2
      LeftHand_dum2 LeftHandThumb1
   end

# File created by Blade
# Date/Time:  Wed Jan 21 19:19:18 2015
# Frame Rate: 120.000 fps
#------------------------------------------------------
:FULLY-SPECIFIED
:DEGREES
82
root -5.417877 31.850281 -0.405702 47.518466 -6.795286 4.865661
RightUpLeg -54.009403 -32.711125 1.676713
RightLeg 6.622912 -0.000000 -0.000000
RightFoot -0.189638 -14.251077 33.633671
RightToeBase 12.390490 -0.000000 -0.000000
LeftUpLeg -42.039446 10.444580 -3.278554
LeftLeg -0.142574 -0.000000 0.000000
LeftFoot -7.812426 -3.159914 -14.428227
LeftToeBase 8.697902 -0.000000 -0.000000
Spine -44.621435 1.215220 -1.572079
RightShoulder -18.056685 6.794551 -28.310809
RightArm -4.965661 -19.983261 82.454045
RightForeArm 11.623620 -0.000000 -3.604960
RightHand 11.611349 -0.000000 -0.457468
RightHandThumb1 -24.326973 -0.000000 -32.862282
LeftShoulder -11.650101 10.171887 30.040557
LeftArm 11.564476 5.422046 -81.886733
LeftForeArm 10.057763 -0.000000 4.203164
LeftHand -21.785998 -0.000000 6.618408
LeftHandThumb1 -26.253704 0.000000 33.147579
Head 15.510711 -8.221504 12.011769
83
root -5.590139 31.834672 -0.427949 47.625934 -6.943436 4.875356
RightUpLeg -54.416891 -32.683728 2.225500
RightLeg 6.877209 -0.000000 -0.000000
RightFoot -1.027949 -13.570125 34.056647
RightToeBase 12.963979 -0.000000 -0.000000
LeftUpLeg -42.253602 10.853635 -3.256939
LeftLeg 0.029472 -0.000000 -0.000000
LeftFoot -7.664262 -3.381047 -14.902655
LeftToeBase 8.625961 -0.000000 -0.000000
Spine -44.532536 1.526051 -1.369389
RightShoulder -17.915672 6.886061 -28.464234
RightArm -5.005425 -20.214055 82.484643
RightForeArm 12.018516 0.000000 -3.340922
RightHand 11.877420 -0.000000 -1.060925
RightHandThumb1 -24.326973 -0.000000 -32.862282
LeftShoulder -11.712506 10.179966 29.964930
LeftArm 11.470536 5.253791 -82.056696
LeftForeArm 10.092694 -0.000000 4.185587
LeftHand -21.775217 -0.000000 6.538822
LeftHandThumb1 -26.253704 0.000000 33.147579
Head 15.498810 -7.842701 11.700193
84
root -5.758455 31.820662 -0.457068 47.755750 -7.112887 4.871744
RightUpLeg -54.890359 -32.626682 2.796506
RightLeg 7.154262 -0.000000 -0.000000
RightFoot -1.746276 -12.895667 34.197256
RightToeBase 13.450798 -0.000000 -0.000000
LeftUpLeg -42.515066 11.313386 -3.289731
LeftLeg 0.212306 -0.000000 -0.000000
LeftFoot -7.510471 -3.600998 -15.339673
LeftToeBase 8.617264 -0.000000 -0.000000
Spine -44.425882 1.850888 -1.147210
RightShoulder -17.791528 6.949592 -28.622360
RightArm -4.915194 -20.309981 82.461275
RightForeArm 12.244180 -0.000000 -3.139842
RightHand 11.894328 -0.000000 -1.222800
RightHandThumb1 -24.326973 -0.000000 -32.862282
LeftShoulder -11.788778 10.202015 29.907202
LeftArm 11.287139 5.505051 -82.175488
LeftForeArm 9.784788 -0.000000 4.354456
LeftHand -21.806160 0.000000 6.573819
LeftHandThumb1 -26.253704 0.000000 33.147579
Head 15.443876 -7.461030 11.366617
85
root -5.920348 31.808174 -0.492215 47.903445 -7.323757 4.879119
RightUpLeg -55.511709 -32.633710 3.469565
RightLeg 7.503974 -0.000000 -0.000000
RightFoot -2.320210 -12.131069 34.001551
RightToeBase 13.991345 -0.000000 -0.000000
LeftUpLeg -42.806418 11.786761 -3.350197
LeftLeg 0.405410 -0.000000 -0.000000
LeftFoot -7.402683 -3.988252 -16.148543
LeftToeBase 9.097423 -0.000000 -0.000000
Spine -44.311522 2.241448 -0.969335
RightShoulder -17.682796 7.071072 -28.819340
RightArm -4.907212 -20.415792 82.464958
RightForeArm 12.663475 -0.000000 -2.864605
RightHand 11.727946 -0.000000 -1.451732
RightHandThumb1 -24.326973 -0.000000 -32.862282
LeftShoulder -11.842097 10.148294 29.822969
LeftArm 11.151192 5.595239 -82.307584
LeftForeArm 9.440210 -0.000000 4.312551
LeftHand -21.676274 -0.000000 6.639405
LeftHandThumb1 -26.253704 0.000000 33.147579
Head 15.359726 -7.041196 11.005782
86
root -6.079752 31.796718 -0.529991 48.084986 -7.526705 4.877001
RightUpLeg -56.129390 -32.558265 4.063907
RightLeg 7.880345 -0.000000 -0.000000
RightFoot -2.959029 -11.432752 33.899665
RightToeBase 14.606610 -0.000000 -0.000000
LeftUpLeg -43.149089 12.283329 -3.439545
LeftLeg 0.612472 -0.000000 -0.000000
LeftFoot -7.086072 -4.240825 -16.400735
LeftToeBase 8.590044 -0.000000 -0.000000
Spine -44.213244 2.620475 -0.760000
RightShoulder -17.562924 7.206517 -28.989951
RightArm -4.848090 -20.242864 82.363702
RightForeArm 12.586944 -0.000000 -2.600741
RightHand 11.657590 -0.000000 -1.531328
RightHandThumb1 -24.326973 -0.000000 -32.862282
LeftShoulder -11.900389 10.182306 29.750473
LeftArm 11.078947 5.755083 -82.442453
LeftForeArm 9.241025 0.000000 4.274397
LeftHand -21.691672 0.000000 6.599689
LeftHandThumb1 -26.253704 0.000000 33.147579
Head 15.250919 -6.632280 10.670719
87
root -6.236601 31.787190 -0.575459 48.269136 -7.756965 4.900180
RightUpLeg -56.803634 -32.441614 4.599364
RightLeg 8.346739 -0.000000 -0.000000
RightFoot -3.574824 -10.791710 33.853075
RightToeBase 14.923808 -0.000000 -0.000000
LeftUpLeg -43.512948 12.779668 -3.550425
LeftLeg 0.823570 -0.000000 -0.000000
LeftFoot -6.875092 -4.735167 -17.347871
LeftToeBase 8.967885 -0.000000 -0.000000
Spine -44.094279 3.008506 -0.590280
RightShoulder -17.440177 7.417855 -29.182592
RightArm -4.847833 -20.033285 82.307499
RightForeArm 12.620476 -0.000000 -2.403502
RightHand 12.170643 -0.000000 -2.132633
RightHandThumb1 -24.326973 -0.000000 -32.862282
LeftShoulder -11.915810 10.125916 29.671011
LeftArm 10.935039 5.784962 -82.568323
LeftForeArm 8.908379 -0.000000 4.187378
LeftHand -21.562874 0.000000 6.410337
LeftHandThumb1 -26.253704 0.000000 33.147579
Head 15.135351 -6.267310 10.299741
88
root -6.389473 31.779377 -0.627529 48.501136 -7.993007 4.955773
RightUpLeg -57.577428 -32.309508 5.108557
RightLeg 8.892797 -0.000000 -0.000000
RightFoot -4.212905 -10.187304 33.829891
RightToeBase 15.281097 -0.000000 -0.000000
LeftUpLeg -43.950982 13.256801 -3.700390
LeftLeg 1.059326 -0.000000 -0.000000
LeftFoot -6.514510 -5.139907 -18.084961
LeftToeBase 9.100764 -0.000000 -0.000000
Spine -43.995367 3.366268 -0.441992
RightShoulder -17.317762 7.633175 -29.343730
RightArm -4.828594 -20.204345 82.263714
RightForeArm 13.135522 -0.000000 -2.199194
RightHand 12.315219 -0.000000 -2.499851
RightHandThumb1 -24.326973 -0.000000 -32.862282
LeftShoulder -11.946024 10.116908 29.617771
LeftArm 10.813597 5.782821 -82.754137
LeftForeArm 8.853360 -0.000000 4.157085
LeftHand -21.561943 -0.000000 6.422760
LeftHandThumb1 -26.253704 0.000000 33.147579
Head 14.988519 -5.890185 9.971975
89
root -6.538794 31.775218 -0.686928 48.758565 -8.219408 5.063305
RightUpLeg -58.406988 -32.163584 5.560544
RightLeg 9.495609 -0.000000 -0.000000
RightFoot -4.951942 -9.667100 33.719713
RightToeBase 15.799351 -0.000000 -0.000000
LeftUpLeg -44.463916 13.767824 -3.936674
LeftLeg 1.328284 -0.000000 -0.000000
LeftFoot -5.929537 -5.732753 -18.684842
LeftToeBase 8.694039 -0.000000 -0.000000
Spine -43.898694 3.691109 -0.332564
RightShoulder -17.196423 7.787416 -29.472945
RightArm -4.677031 -20.192276 82.143467
RightForeArm 13.457278 0.000000 -2.056644
RightHand 12.229096 -0.000000 -2.432137
RightHandThumb1 -24.326973 -0.000000 -32.862282
LeftShoulder -11.959646 10.041248 29.555028
LeftArm 10.695522 5.794868 -82.900345
LeftForeArm 8.687377 -0.000000 4.007969
LeftHand -21.530935 -0.000000 6.240524
LeftHandThumb1 -26.253704 0.000000 33.147579
Head 14.800737 -5.535762 9.640584
90
root -6.682874 31.771865 -0.750181 49.023661 -8.440935 5.193298
RightUpLeg -59.272289 -32.026339 5.993565
RightLeg 10.130604 -0.000000 -0.000000
RightFoot -5.657091 -9.216602 33.562812
RightToeBase 16.269189 -0.000000 -0.000000
LeftUpLeg -44.918345 14.116466 -4.004958
LeftLeg 1.524679 -0.000000 -0.000000
LeftFoot -5.323757 -6.399450 -19.635892
LeftToeBase 8.493740 -0.000000 -0.000000
Spine -43.790664 3.991987 -0.202792
RightShoulder -17.032753 8.083089 -29.615816
RightArm -4.525428 -18.819006 81.865076
RightForeArm 12.349086 0.000000 -2.101147
RightHand 12.519607 -0.000000 -2.200083
RightHandThumb1 -24.326973 -0.000000 -32.862282
LeftShoulder -11.986980 10.029933 29.450676
LeftArm 10.623286 5.828396 -83.019424
LeftForeArm 8.280577 -0.000000 3.879019
LeftHand -21.404917 -0.000000 6.143133
LeftHandThumb1 -26.253704 0.000000 33.147579
Head 14.625386 -5.141806 9.274294
91
root -6.824554 31.769801 -0.815699 49.297516 -8.613009 5.360183
RightUpLeg -60.155814 -31.908102 6.394670
RightLeg 10.808886 -0.000000 -0.000000
RightFoot -6.347475 -8.834955 33.284192
RightToeBase 16.658999 -0.000000 -0.000000
LeftUpLeg -45.464406 14.561566 -4.201740
LeftLeg 1.789392 -0.000000 -0.000000
LeftFoot -4.623837 -7.388207 -20.875809
LeftToeBase 8.337055 -0.000000 -0.000000
Spine -43.692168 4.218807 -0.064686
RightShoulder -16.883466 8.303829 -29.715768
RightArm -4.407658 -19.300713 81.783492
RightForeArm 12.965115 0.000000 -1.949373
RightHand 12.444660 -0.000000 -2.377266
RightHandThumb1 -24.326973 -0.000000 -32.862282
LeftShoulder -11.961289 9.947086 29.404053
LeftArm 10.419042 5.868885 -83.193665
LeftForeArm 8.130283 -0.000000 3.803809
LeftHand -21.345980 -0.000000 5.968533
LeftHandThumb1 -26.253704 0.000000 33.147579
Head 14.427240 -4.814455 8.964919
92
root -6.959104 31.769684 -0.889168 49.606679 -8.776121 5.593136
RightUpLeg -61.122334 -31.793435 6.696967
RightLeg 11.605991 -0.000000 -0.000000
RightFoot -7.067022 -8.458494 33.096854
RightToeBase 16.973263 -0.000000 -0.000000
LeftUpLeg -46.045305 14.855593 -4.316445
LeftLeg 2.070059 -0.000000 -0.000000
LeftFoot -3.785899 -8.328103 -22.165631
LeftToeBase 7.769443 -0.000000 -0.000000
Spine -43.606503 4.388157 0.041560
RightShoulder -16.711712 8.635561 -29.812716
RightArm -4.361084 -19.553853 81.643127
RightForeArm 13.246707 -0.000000 -1.818597
RightHand 12.638731 -0.000000 -2.563180
RightHandThumb1 -24.326973 -0.000000 -32.862282
LeftShoulder -11.939217 9.950114 29.336452
LeftArm 10.338651 5.867053 -83.357186
LeftForeArm 7.819101 -0.000000 3.685292
LeftHand -21.287711 0.000000 5.836897
LeftHandThumb1 -26.253704 0.000000 33.147579
Head 14.222159 -4.463382 8.643782
